<?xml version="1.0" encoding="UTF-8"?>
<svg xmlns="http://www.w3.org/2000/svg" viewBox="0 0 500 368.76">
  <g id="Background_Complete" data-name="Background Complete">
    <g>
      <rect x="416.78" y="343.54" width="33.12" height=".25" style="fill: #ebebeb;"/>
      <rect x="322.53" y="346.26" width="8.69" height=".25" style="fill: #ebebeb;"/>
      <rect x="396.59" y="334.26" width="19.19" height=".25" style="fill: #ebebeb;"/>
      <rect x="52.46" y="335.94" width="43.19" height=".25" style="fill: #ebebeb;"/>
      <rect x="104.56" y="335.94" width="6.33" height=".25" style="fill: #ebebeb;"/>
      <rect x="131.47" y="340.16" width="93.68" height=".25" style="fill: #ebebeb;"/>
      <g>
        <path d="m238.4,282.85H45.3c-3.15,0-5.71-2.56-5.71-5.71V5.71c0-3.15,2.56-5.71,5.71-5.71h193.1c3.15,0,5.71,2.56,5.71,5.71v271.43c0,3.15-2.56,5.71-5.71,5.71ZM45.3.25c-3.01,0-5.46,2.45-5.46,5.46v271.43c0,3.01,2.45,5.46,5.46,5.46h193.1c3.01,0,5.46-2.45,5.46-5.46V5.71c0-3.01-2.45-5.46-5.46-5.46H45.3Z" style="fill: #ebebeb;"/>
        <path d="m454.7,282.85h-193.1c-3.15,0-5.71-2.56-5.71-5.71V5.71c0-3.15,2.56-5.71,5.71-5.71h193.1c3.15,0,5.71,2.56,5.71,5.71v271.43c0,3.15-2.56,5.71-5.71,5.71ZM261.6.25c-3.01,0-5.46,2.45-5.46,5.46v271.43c0,3.01,2.45,5.46,5.46,5.46h193.1c3.01,0,5.46-2.45,5.46-5.46V5.71c0-3.01-2.45-5.46-5.46-5.46h-193.1Z" style="fill: #ebebeb;"/>
      </g>
      <rect y="327.45" width="500" height=".25" style="fill: #ebebeb;"/>
    </g>
    <g>
      <g>
        <rect x="338.37" y="255.37" width="63.24" height="72.69" style="fill: #f5f5f5;"/>
        <rect x="401.61" y="255.37" width="38.84" height="72.69" style="fill: #ebebeb;"/>
        <g>
          <polygon points="417.15 255.37 417.15 282.88 418.15 281.83 419.93 283.1 421.48 281.83 423.48 283.1 425.59 281.83 426.92 283.1 428.47 282.17 428.47 255.37 417.15 255.37" style="fill: #e0e0e0;"/>
          <polygon points="417.15 255.37 417.15 282.88 418.15 281.83 419.93 283.1 421.48 281.83 423.48 283.1 425.59 281.83 426.92 283.1 428.47 282.17 428.47 255.37 417.15 255.37" style="fill: #e0e0e0; opacity: .7;"/>
        </g>
      </g>
      <g>
        <rect x="352.62" y="135.43" width="48.63" height="55.9" style="fill: #f5f5f5;"/>
        <rect x="401.25" y="135.43" width="29.87" height="55.9" style="fill: #e6e6e6;"/>
        <polygon points="391.96 151.15 343.33 151.15 352.62 135.43 401.25 135.43 391.96 151.15" style="fill: #e6e6e6;"/>
        <polygon points="410.05 151.15 439.93 151.15 431.12 135.43 401.25 135.43 410.05 151.15" style="fill: #f5f5f5;"/>
      </g>
      <g>
        <rect x="374.18" y="191.22" width="55.9" height="64.26" transform="translate(804.25 446.7) rotate(180)" style="fill: #f5f5f5;"/>
        <rect x="339.84" y="191.22" width="34.34" height="64.26" transform="translate(714.02 446.7) rotate(180)" style="fill: #e6e6e6;"/>
      </g>
      <rect x="402.57" y="198.44" width="20.77" height="12.23" style="fill: #e0e0e0;"/>
    </g>
    <g>
      <path d="m397.06,55.01l-46-4.84c-3.04-.32-5.77,1.89-6.09,4.93l-.59,5.64c-.32,3.04,1.89,5.77,4.93,6.09l15.72,1.65,4.82,6.5c.88,1.19,2.59,1.37,3.69.39l6.06-5.36,15.72,1.65c3.04.32,5.77-1.89,6.09-4.93l.59-5.64c.32-3.04-1.89-5.77-4.93-6.09Z" style="fill: #e0e0e0;"/>
      <g>
        <path d="m350.96,60.66l-1.64.9c-.35.19-.75-.16-.59-.53l.73-1.72c.07-.16.03-.35-.1-.47l-1.36-1.28c-.29-.27-.07-.76.32-.73l1.86.16c.18.01.34-.08.42-.24l.79-1.69c.17-.36.7-.31.79.08l.43,1.82c.04.17.18.3.36.32l1.85.23c.4.05.51.57.17.78l-1.6.97c-.15.09-.23.27-.2.44l.35,1.84c.08.39-.39.66-.69.4l-1.41-1.22c-.13-.12-.32-.14-.48-.05Z" style="fill: #fafafa;"/>
        <path d="m361.84,61.8l-1.64.9c-.35.19-.75-.16-.59-.53l.72-1.72c.07-.16.03-.35-.1-.47l-1.36-1.28c-.29-.27-.07-.76.32-.73l1.86.16c.18.01.34-.08.42-.24l.79-1.69c.17-.36.7-.31.79.08l.43,1.82c.04.17.18.3.36.32l1.85.23c.4.05.51.57.17.78l-1.6.97c-.15.09-.23.27-.2.44l.35,1.84c.08.39-.39.66-.69.4l-1.41-1.22c-.13-.12-.32-.14-.48-.05Z" style="fill: #fafafa;"/>
        <path d="m372.73,62.95l-1.64.9c-.35.19-.75-.16-.59-.53l.73-1.72c.07-.16.03-.35-.1-.47l-1.36-1.28c-.29-.27-.07-.76.32-.73l1.86.16c.18.01.34-.08.42-.24l.79-1.69c.17-.36.7-.31.79.08l.43,1.82c.04.17.18.3.36.32l1.85.23c.4.05.51.57.17.78l-1.6.97c-.15.09-.23.27-.2.44l.35,1.84c.08.39-.39.66-.69.4l-1.41-1.22c-.13-.12-.32-.14-.48-.05Z" style="fill: #fafafa;"/>
        <path d="m383.61,64.09l-1.64.9c-.35.19-.75-.16-.59-.53l.73-1.72c.07-.16.03-.35-.1-.47l-1.36-1.28c-.29-.27-.07-.76.32-.73l1.86.16c.18.01.34-.08.42-.24l.79-1.69c.17-.36.7-.31.79.08l.43,1.82c.04.17.18.3.36.32l1.85.23c.4.05.51.57.17.78l-1.6.97c-.15.09-.23.27-.2.44l.35,1.84c.08.39-.39.66-.69.4l-1.41-1.22c-.13-.12-.32-.14-.48-.05Z" style="fill: #fafafa;"/>
        <path d="m394.5,65.24l-1.64.9c-.35.19-.75-.16-.59-.53l.72-1.72c.07-.16.03-.35-.1-.47l-1.36-1.28c-.29-.27-.07-.76.32-.73l1.86.16c.18.01.34-.08.42-.24l.79-1.69c.17-.36.7-.31.79.08l.43,1.82c.04.17.18.3.36.32l1.85.23c.4.05.51.57.17.78l-1.6.97c-.15.09-.23.27-.2.44l.35,1.84c.08.39-.39.66-.69.4l-1.41-1.22c-.13-.12-.32-.14-.48-.05Z" style="fill: #fafafa;"/>
      </g>
    </g>
    <g>
      <g>
        <path d="m88.99,234.22h1.77c0-21.89,7.72-39.7,17.22-39.7s17.22,17.81,17.22,39.7h1.77c0-23.25-8.52-42.17-18.99-42.17s-18.99,18.92-18.99,42.17Z" style="fill: #e0e0e0;"/>
        <path d="m77.81,234.22h1.77c0-21.89,7.72-39.7,17.22-39.7s17.22,17.81,17.22,39.7h1.77c0-23.25-8.52-42.17-18.99-42.17s-18.99,18.92-18.99,42.17Z" style="fill: #e0e0e0;"/>
        <polygon points="63.69 227.91 125.7 227.91 132.79 328.06 51.29 328.06 63.69 227.91" style="fill: #e0e0e0;"/>
        <polygon points="74.32 227.91 141.65 227.91 148.73 328.06 67.23 328.06 74.32 227.91" style="fill: #f0f0f0;"/>
        <rect x="83.18" y="265" width="46.06" height="25.97" transform="translate(212.42 555.96) rotate(180)" style="fill: #fafafa;"/>
      </g>
      <g>
        <path d="m168.95,250.86h1.46c0-18.01,6.35-32.66,14.16-32.66s14.16,14.65,14.16,32.66h1.46c0-19.13-7.01-34.69-15.62-34.69s-15.62,15.56-15.62,34.69Z" style="fill: #e0e0e0;"/>
        <path d="m159.75,250.86h1.46c0-18.01,6.35-32.66,14.16-32.66s14.16,14.65,14.16,32.66h1.46c0-19.13-7.01-34.69-15.62-34.69s-15.62,15.56-15.62,34.69Z" style="fill: #e0e0e0;"/>
        <polygon points="148.13 245.67 199.15 245.67 204.98 328.06 137.93 328.06 148.13 245.67" style="fill: #e0e0e0;"/>
        <polygon points="156.88 245.67 212.26 245.67 218.09 328.06 151.05 328.06 156.88 245.67" style="fill: #f5f5f5;"/>
        <rect x="164.17" y="276.18" width="37.89" height="21.36" transform="translate(366.23 573.72) rotate(180)" style="fill: #e0e0e0;"/>
      </g>
    </g>
  </g>
  <g id="Shadow">
    <ellipse id="_Path_" data-name="&amp;lt;Path&amp;gt;" cx="250" cy="357.44" rx="193.89" ry="11.32" style="fill: #f5f5f5;"/>
  </g>
  <g id="Device">
    <g>
      <g>
        <g>
          <g>
            <path d="m318.68,40.05h-21.41v246.83h21.41c9.93,0,17.97-8.05,17.97-17.97V58.02c0-9.93-8.05-17.97-17.97-17.97Z" style="fill: #263238;"/>
            <g>
              <path d="m334.11,64.8c0-.95.77-1.72,1.72-1.72s1.72.77,1.72,1.72v16.54c0,.95-.77,1.72-1.72,1.72s-1.72-.77-1.72-1.72v-16.54Z" style="fill: #407bff;"/>
              <path d="m334.11,64.8c0-.95.77-1.72,1.72-1.72s1.72.77,1.72,1.72v16.54c0,.95-.77,1.72-1.72,1.72s-1.72-.77-1.72-1.72v-16.54Z" style="fill: #fff; opacity: .3;"/>
            </g>
          </g>
          <path d="m314.3,286.87h-140.68c-9.93,0-17.97-8.05-17.97-17.97V58.02c0-9.93,8.05-17.97,17.97-17.97h140.68c9.93,0,17.97,8.05,17.97,17.97v210.88c0,9.93-8.05,17.97-17.97,17.97Z" style="fill: #407bff;"/>
        </g>
        <rect x="161.15" y="57.71" width="164.54" height="211.5" transform="translate(486.84 326.92) rotate(180)" style="fill: #fff; opacity: .6;"/>
        <path d="m240.22,49.81c0,1.77,1.43,3.2,3.2,3.2s3.2-1.43,3.2-3.2-1.43-3.2-3.2-3.2-3.2,1.43-3.2,3.2Z" style="opacity: .2;"/>
        <g>
          <g>
            <path d="m269.14,94.81c-.68,6.49,4.02,11.75,10.51,11.75s12.3-5.26,12.98-11.75l1.23-11.75h-23.49l-1.23,11.75Z" style="fill: #407bff;"/>
            <path d="m222.16,94.81c-.68,6.49,4.02,11.75,10.51,11.75s12.3-5.26,12.98-11.75l1.23-11.75h-23.49l-1.23,11.75Z" style="fill: #407bff;"/>
            <path d="m175.17,94.81c-.68,6.49,4.02,11.75,10.51,11.75s12.3-5.26,12.98-11.75l1.23-11.75h-23.49l-1.23,11.75Z" style="fill: #407bff;"/>
          </g>
          <g>
            <path d="m292.63,94.81c-.68,6.49,4.02,11.75,10.51,11.75s12.3-5.26,12.98-11.75l1.23-11.75h-23.49l-1.23,11.75Z" style="fill: #407bff;"/>
            <path d="m245.65,94.81c-.68,6.49,4.02,11.75,10.51,11.75s12.3-5.26,12.98-11.75l1.23-11.75h-23.49l-1.23,11.75Z" style="fill: #407bff;"/>
            <path d="m198.66,94.81c-.68,6.49,4.02,11.75,10.51,11.75s12.3-5.26,12.98-11.75l1.23-11.75h-23.49l-1.23,11.75Z" style="fill: #407bff;"/>
            <path d="m151.68,94.81c-.68,6.49,4.02,11.75,10.51,11.75s12.3-5.26,12.98-11.75l1.23-11.75h-23.49l-1.23,11.75Z" style="fill: #407bff;"/>
          </g>
          <g style="opacity: .9;">
            <path d="m292.63,94.81c-.68,6.49,4.02,11.75,10.51,11.75s12.3-5.26,12.98-11.75l1.23-11.75h-23.49l-1.23,11.75Z" style="fill: #fff;"/>
            <path d="m245.65,94.81c-.68,6.49,4.02,11.75,10.51,11.75s12.3-5.26,12.98-11.75l1.23-11.75h-23.49l-1.23,11.75Z" style="fill: #fff;"/>
            <path d="m198.66,94.81c-.68,6.49,4.02,11.75,10.51,11.75s12.3-5.26,12.98-11.75l1.23-11.75h-23.49l-1.23,11.75Z" style="fill: #fff;"/>
            <path d="m151.68,94.81c-.68,6.49,4.02,11.75,10.51,11.75s12.3-5.26,12.98-11.75l1.23-11.75h-23.49l-1.23,11.75Z" style="fill: #fff;"/>
          </g>
          <polygon points="152.91 83.06 317.45 83.06 325.26 57.71 160.72 57.71 152.91 83.06" style="fill: #407bff;"/>
          <polygon points="152.91 83.06 317.45 83.06 325.26 57.71 160.72 57.71 152.91 83.06" style="opacity: .2;"/>
        </g>
      </g>
      <g style="opacity: .2;">
        <path d="m269.94,279.01h-53.04c-1.61,0-1.61-2.5,0-2.5h53.04c1.61,0,1.61,2.5,0,2.5h0Z"/>
      </g>
    </g>
  </g>
  <g id="Screen">
    <g>
      <g>
        <rect x="176.25" y="110.03" width="64.2" height="64.2" rx="5.54" ry="5.54" style="opacity: .2;"/>
        <rect x="173.68" y="107.46" width="64.2" height="64.2" rx="5.54" ry="5.54" style="fill: #407bff;"/>
      </g>
      <path d="m183.84,122.52l-2.89,2.01c-.62.43-1.43-.16-1.22-.88l1.02-3.38c.1-.32-.02-.66-.28-.86l-2.81-2.13c-.6-.46-.29-1.41.46-1.43l3.53-.07c.33,0,.63-.22.74-.53l1.16-3.33c.25-.71,1.26-.71,1.5,0l1.16,3.33c.11.31.4.53.74.53l3.53.07c.75.02,1.07.97.46,1.43l-2.81,2.13c-.27.2-.38.55-.28.86l1.02,3.38c.22.72-.6,1.31-1.22.88l-2.89-2.01c-.27-.19-.64-.19-.91,0Z" style="fill: #fff;"/>
      <g>
        <path d="m208.49,133.89l15.74.3c.68.01,1.26.5,1.4,1.16l2.99,14.77c.28,1.31-.56,2.59-1.87,2.87-.17.04-.34.05-.51.05-6.52-.24-12.31-.7-20.42-.84-9.58-.18-7.17,1.01-18.43.96-6.79-.04-7.88-7.77-5-8.1,13.2-1.41,16.98-5.32,22.15-9.94,1.12-.88,2.53-1.33,3.95-1.24Z" style="fill: #263238;"/>
        <path d="m205.89,148.17c2.65,0,4.3-1.97,5.63-3.55.71-.85,1.52-1.82,2.05-1.82h13.56l-.5-2.46h-13.06c-1.67,0-2.82,1.37-3.93,2.7-1.15,1.37-2.24,2.67-3.74,2.67v2.46Z" style="fill: #fff;"/>
      </g>
      <g>
        <rect x="173.68" y="181.03" width="40.42" height="7.71" rx="3" ry="3" style="fill: #263238;"/>
        <rect x="173.68" y="181.03" width="40.42" height="7.71" rx="3" ry="3" style="fill: #fff; opacity: .4;"/>
        <rect x="225.1" y="181.03" width="13.95" height="7.71" rx="3" ry="3" style="fill: #407bff;"/>
      </g>
    </g>
    <g>
      <g>
        <rect x="261.14" y="118.64" width="51.36" height="51.36" rx="5.54" ry="5.54" style="opacity: .2;"/>
        <rect x="259.09" y="116.58" width="51.36" height="51.36" rx="5.54" ry="5.54" style="fill: #407bff;"/>
        <rect x="259.09" y="116.58" width="51.36" height="51.36" rx="5.54" ry="5.54" style="fill: #fff; opacity: .8;"/>
        <path d="m267.69,130.36l-2.38,1.65c-.51.35-1.18-.13-1-.73l.84-2.77c.08-.26-.01-.54-.23-.71l-2.31-1.75c-.49-.37-.24-1.16.38-1.17l2.89-.06c.27,0,.51-.18.6-.44l.95-2.73c.2-.58,1.03-.58,1.23,0l.95,2.73c.09.26.33.43.6.44l2.89.06c.62.01.87.8.38,1.17l-2.31,1.75c-.22.16-.31.45-.23.71l.84,2.77c.18.59-.49,1.08-1,.73l-2.38-1.65c-.22-.16-.52-.16-.75,0Z" style="fill: #407bff;"/>
      </g>
      <g>
        <rect x="259.09" y="175.44" width="32.34" height="6.17" rx="3" ry="3" style="fill: #263238;"/>
        <rect x="259.09" y="175.44" width="32.34" height="6.17" rx="3" ry="3" style="fill: #fff; opacity: .4;"/>
        <rect x="300.22" y="175.44" width="11.16" height="6.17" rx="3" ry="3" style="fill: #407bff;"/>
      </g>
      <g>
        <path d="m283.54,139.13c-2.35,5.06-7.21,6.87-17.83,8-2.32.26-1.44,6.49,4.02,6.52,9.07.04,7.13-.92,14.84-.78,6.53.11,11.19.49,16.44.68.14,0,.28-.01.41-.04,1.05-.22,1.73-1.25,1.51-2.31,0,0-2.11-8.87-2.41-11.89-.19-1.86,0-7.49,0-7.49h-16.78s.57,5.65-.2,7.31Z" style="fill: #407bff;"/>
        <g style="opacity: .4;">
          <path d="m283.54,139.13c-2.35,5.06-7.21,6.87-17.83,8-2.32.26-1.44,6.49,4.02,6.52,9.07.04,7.13-.92,14.84-.78,6.53.11,11.19.49,16.44.68.14,0,.28-.01.41-.04,1.05-.22,1.73-1.25,1.51-2.31,0,0-2.11-8.87-2.41-11.89-.19-1.86,0-7.49,0-7.49h-16.78s.57,5.65-.2,7.31Z"/>
        </g>
        <path d="m302.93,151.2s-.27-1.14-.63-2.74c-2.2.17-9.83.69-21.55.69-9.67,0-13.14-1.29-14.36-2.1-.23.03-.44.05-.67.08-1.54.17-1.66,2.97.03,4.84v1.73l1.11,1.11,1.03-1.03,1.03,1.03,1.03-1.03,1.03,1.03,1.03-1.03,1.03,1.03,1.03-1.03,1.03,1.03,1.03-1.03,1.03,1.03,1.03-1.03,1.03,1.03,1.11-1.11v-.77c1.04-.07,2.35-.1,4.26-.07,2.03.04,3.86.1,5.6.17v.66l1.11,1.11,1.03-1.03,1.03,1.03,1.03-1.03,1.03,1.03,1.03-1.03,1.03,1.03,1.03-1.03,1.03,1.03,1.03-1.03,1.03,1.03,1.11-1.11v-1.11c.24-.41.35-.89.25-1.39Z" style="fill: #263238;"/>
        <path d="m302.93,151.2s-.27-1.14-.63-2.74c-2.2.17-9.83.69-21.55.69-9.67,0-13.14-1.29-14.36-2.1-.23.03-.44.05-.67.08-1.54.17-1.66,2.97.03,4.84v1.73l1.11,1.11,1.03-1.03,1.03,1.03,1.03-1.03,1.03,1.03,1.03-1.03,1.03,1.03,1.03-1.03,1.03,1.03,1.03-1.03,1.03,1.03,1.03-1.03,1.03,1.03,1.11-1.11v-.77c1.04-.07,2.35-.1,4.26-.07,2.03.04,3.86.1,5.6.17v.66l1.11,1.11,1.03-1.03,1.03,1.03,1.03-1.03,1.03,1.03,1.03-1.03,1.03,1.03,1.03-1.03,1.03,1.03,1.03-1.03,1.03,1.03,1.11-1.11v-1.11c.24-.41.35-.89.25-1.39Z" style="fill: #fff; opacity: .5;"/>
      </g>
    </g>
    <g>
      <g>
        <rect x="261.14" y="197.42" width="51.36" height="51.36" rx="5.54" ry="5.54" style="opacity: .2;"/>
        <rect x="259.09" y="195.37" width="51.36" height="51.36" rx="5.54" ry="5.54" style="fill: #407bff;"/>
        <rect x="259.09" y="195.37" width="51.36" height="51.36" rx="5.54" ry="5.54" style="fill: #fff; opacity: .8;"/>
        <path d="m267.69,208.2l-2.38,1.65c-.51.35-1.18-.13-1-.73l.84-2.77c.08-.26-.01-.54-.23-.71l-2.31-1.75c-.49-.37-.24-1.16.38-1.17l2.89-.06c.27,0,.51-.18.6-.44l.95-2.73c.2-.58,1.03-.58,1.23,0l.95,2.73c.09.26.33.43.6.44l2.89.06c.62.01.87.8.38,1.17l-2.31,1.75c-.22.16-.31.45-.23.71l.84,2.77c.18.59-.49,1.08-1,.73l-2.38-1.65c-.22-.16-.52-.16-.75,0Z" style="fill: #407bff;"/>
      </g>
      <g>
        <rect x="259.09" y="254.23" width="32.34" height="6.17" rx="3" ry="3" style="fill: #263238;"/>
        <rect x="259.09" y="254.23" width="32.34" height="6.17" rx="3" ry="3" style="fill: #fff; opacity: .4;"/>
        <rect x="300.22" y="254.23" width="11.16" height="6.17" rx="3" ry="3" style="fill: #407bff;"/>
      </g>
      <g>
        <path d="m287.72,216.84l12.49.24c.54.01,1,.39,1.11.92l2.38,11.73c.22,1.04-.45,2.06-1.49,2.28-.13.03-.27.04-.41.04-5.17-.19-9.77-.56-16.21-.67-7.6-.14-5.69.81-14.63.76-5.39-.03-6.26-6.17-3.97-6.43,10.48-1.12,13.48-4.23,17.59-7.89.89-.7,2.01-1.05,3.14-.99Z" style="fill: #263238;"/>
        <g>
          <path d="m277.5,215.95c-.06.09-.13.19-.18.3-.29.55-.16.99,0,1.25.97,1.6,6.34,1.64,7.41,1.63.17,0,.32-.1.39-.26.07-.16.03-.34-.09-.46-1.4-1.4-4.04-3.71-6.03-3.42-.61.09-1.11.41-1.49.96Zm6.14,2.32c-2.34-.08-5.14-.45-5.6-1.21-.05-.08-.09-.2.03-.41.25-.48.6-.75,1.04-.82,1.02-.15,2.68.75,4.53,2.43Z" style="fill: #407bff;"/>
          <path d="m278.15,220.76c-.07.1-.13.21-.17.32-.12.31-.21.91.5,1.47.45.36.99.5,1.59.42,2.28-.31,4.88-3.86,4.99-4.01.1-.13.11-.29.04-.43-.07-.14-.21-.23-.36-.24-1.68-.09-5.58,1.01-6.59,2.48Zm5.66-1.58c-.95,1.13-2.58,2.77-3.85,2.95-.37.05-.68-.03-.95-.24-.33-.26-.27-.43-.23-.51.32-.87,3.13-1.96,5.03-2.2Z" style="fill: #407bff;"/>
        </g>
      </g>
    </g>
    <g>
      <g>
        <rect x="180.41" y="197.42" width="51.36" height="51.36" rx="5.54" ry="5.54" style="opacity: .2;"/>
        <rect x="178.36" y="195.37" width="51.36" height="51.36" rx="5.54" ry="5.54" style="fill: #407bff;"/>
        <rect x="178.36" y="195.37" width="51.36" height="51.36" rx="5.54" ry="5.54" style="fill: #fff; opacity: .8;"/>
      </g>
      <path d="m185.69,208.2l-2.38,1.65c-.51.35-1.18-.13-1-.73l.84-2.77c.08-.26-.01-.54-.23-.71l-2.31-1.75c-.49-.37-.24-1.16.38-1.17l2.89-.06c.27,0,.51-.18.6-.44l.95-2.73c.2-.58,1.03-.58,1.23,0l.95,2.73c.09.26.33.43.6.44l2.89.06c.62.01.87.8.38,1.17l-2.31,1.75c-.22.16-.31.45-.23.71l.84,2.77c.18.59-.49,1.08-1,.73l-2.38-1.65c-.22-.16-.52-.16-.75,0Z" style="fill: #407bff;"/>
      <g>
        <rect x="178.36" y="254.23" width="32.34" height="6.17" rx="3" ry="3" style="fill: #263238;"/>
        <rect x="178.36" y="254.23" width="32.34" height="6.17" rx="3" ry="3" style="fill: #fff; opacity: .4;"/>
        <rect x="219.49" y="254.23" width="11.16" height="6.17" rx="3" ry="3" style="fill: #407bff;"/>
      </g>
      <g>
        <g>
          <path d="m207.08,216.14l12.91.25c.56.01,1.04.41,1.15.96l2.46,12.12c.23,1.07-.46,2.13-1.54,2.35-.14.03-.28.04-.42.04-5.35-.19-10.1-.58-16.76-.69-7.86-.15-5.88.83-15.12.79-5.57-.03-6.47-6.38-4.1-6.64,10.83-1.16,13.94-4.37,18.18-8.16.92-.73,2.07-1.09,3.24-1.02Z" style="fill: #407bff;"/>
          <g style="opacity: .2;">
            <path d="m207.08,216.14l12.91.25c.56.01,1.04.41,1.15.96l2.46,12.12c.23,1.07-.46,2.13-1.54,2.35-.14.03-.28.04-.42.04-5.35-.19-10.1-.58-16.76-.69-7.86-.15-5.88.83-15.12.79-5.57-.03-6.47-6.38-4.1-6.64,10.83-1.16,13.94-4.37,18.18-8.16.92-.73,2.07-1.09,3.24-1.02Z"/>
          </g>
          <path d="m222.06,231.82c1.07-.23,1.76-1.28,1.53-2.35l-.9-4.44c-1.91,1.42-3.47,4.22-3.47,4.22,0,0-7.22,0-12.85-.76-5.63-.76-12.18.76-12.18.76,0-2.28-1.62-4.06-2.61-4.93-1.69.42-3.63.76-5.93,1.01-2.37.27-1.47,6.61,4.1,6.64,9.24.04,7.27-.94,15.12-.79,6.66.12,11.41.5,16.76.69.14,0,.28-.01.42-.04Z" style="fill: #fff; opacity: .5;"/>
          <g style="opacity: .5;">
            <path d="m205.46,219.31l-1.84-1.96c-.45.41-.9.81-1.34,1.2l1.87,1.99c.34.36.91.38,1.27.04.36-.34.38-.91.04-1.27Z"/>
            <path d="m197.36,225.65c.36-.34.38-.91.04-1.27l-1.45-1.55c-.56.25-1.16.49-1.79.71l1.94,2.06c.34.36.91.38,1.27.04Z"/>
            <path d="m200.52,223.63c.34.36.91.38,1.27.04s.38-.91.04-1.27l-1.84-1.96c-.47.36-.97.7-1.5,1.03l2.03,2.16Z"/>
          </g>
        </g>
        <path d="m215.52,222.18c0,1.78-1.44,3.22-3.22,3.22s-3.22-1.44-3.22-3.22,1.44-3.22,3.22-3.22,3.22,1.44,3.22,3.22Z" style="fill: #fff; opacity: .5;"/>
      </g>
    </g>
  </g>
  <g id="Trolley">
    <g>
      <g>
        <g>
          <rect x="317.5" y="249.25" width="44.11" height="3.16" rx="1.58" ry="1.58" style="fill: #263238;"/>
          <g style="opacity: .5;">
            <rect x="317.5" y="249.25" width="44.11" height="3.16" rx="1.58" ry="1.58" style="fill: #fff;"/>
          </g>
        </g>
        <g>
          <rect x="317.92" y="249.25" width="3.16" height="24.09" rx="1.58" ry="1.58" style="fill: #263238;"/>
          <g style="opacity: .7;">
            <rect x="317.92" y="249.25" width="3.16" height="24.09" rx="1.58" ry="1.58" style="fill: #fff;"/>
          </g>
        </g>
        <g>
          <rect x="358.46" y="249.25" width="3.16" height="24.09" rx="1.58" ry="1.58" style="fill: #263238;"/>
          <g style="opacity: .7;">
            <rect x="358.46" y="249.25" width="3.16" height="24.09" rx="1.58" ry="1.58" style="fill: #fff;"/>
          </g>
        </g>
      </g>
      <g>
        <g>
          <rect x="356.09" y="251.33" width="64.2" height="64.2" rx="5.54" ry="5.54" transform="translate(750.2 599.62) rotate(-175)" style="fill: #407bff;"/>
          <rect x="356.09" y="251.33" width="64.2" height="64.2" rx="5.54" ry="5.54" transform="translate(750.2 599.62) rotate(-175)" style="opacity: .5;"/>
          <rect x="358.88" y="249" width="64.2" height="64.2" rx="5.54" ry="5.54" transform="translate(755.97 595.2) rotate(-175)" style="fill: #407bff;"/>
          <rect x="358.88" y="249" width="64.2" height="64.2" rx="5.54" ry="5.54" transform="translate(755.97 595.2) rotate(-175)" style="fill: #fff; opacity: .3;"/>
        </g>
        <g>
          <path d="m388.77,275.22l-15.7-1.07c-.68-.05-1.3.38-1.5,1.04l-4.27,14.45c-.39,1.28.33,2.63,1.61,3.02.16.05.33.08.5.1,6.51.33,12.32.37,20.42.94,9.56.66,7.05,1.64,18.28,2.57,6.76.55,8.53-7.06,5.69-7.63-13.02-2.56-16.46-6.78-21.2-11.83-1.04-.98-2.4-1.54-3.83-1.58Z" style="fill: #fff;"/>
          <path d="m390.11,289.67c-2.64-.23-4.11-2.34-5.3-4.03-.64-.91-1.36-1.95-1.88-1.99l-13.51-1.18.71-2.4,13.01,1.14c1.67.15,2.69,1.61,3.68,3.03,1.03,1.47,2,2.86,3.5,2.99l-.21,2.45Z" style="fill: #407bff;"/>
        </g>
      </g>
      <g>
        <g>
          <g>
            <path d="m328.75,321.79h0c.81-.15,1.34-.92,1.19-1.73l-8.71-47.02c-.15-.81-.92-1.34-1.73-1.19h0c-.81.15-1.34.92-1.19,1.73l8.71,47.02c.15.81.92,1.34,1.73,1.19Z" style="fill: #263238;"/>
            <path d="m346.63,321.79h0c.81-.1,1.39-.84,1.29-1.65l-5.8-47c-.1-.81-.84-1.39-1.65-1.29h0c-.81.1-1.39.84-1.29,1.65l5.8,47c.1.81.84,1.39,1.65,1.29Z" style="fill: #263238;"/>
            <path d="m364.51,321.79h0c.82-.05,1.44-.75,1.39-1.57l-2.9-46.98c-.05-.82-.75-1.44-1.57-1.39h0c-.82.05-1.44.75-1.39,1.57l2.9,46.98c.05.82.75,1.44,1.57,1.39Z" style="fill: #263238;"/>
            <rect x="380.91" y="271.85" width="2.97" height="49.94" rx="1.48" ry="1.48" style="fill: #263238;"/>
          </g>
          <g style="opacity: .5;">
            <path d="m328.75,321.79h0c.81-.15,1.34-.92,1.19-1.73l-8.71-47.02c-.15-.81-.92-1.34-1.73-1.19h0c-.81.15-1.34.92-1.19,1.73l8.71,47.02c.15.81.92,1.34,1.73,1.19Z" style="fill: #fff;"/>
            <path d="m346.63,321.79h0c.81-.1,1.39-.84,1.29-1.65l-5.8-47c-.1-.81-.84-1.39-1.65-1.29h0c-.81.1-1.39.84-1.29,1.65l5.8,47c.1.81.84,1.39,1.65,1.29Z" style="fill: #fff;"/>
            <path d="m364.51,321.79h0c.82-.05,1.44-.75,1.39-1.57l-2.9-46.98c-.05-.82-.75-1.44-1.57-1.39h0c-.82.05-1.44.75-1.39,1.57l2.9,46.98c.05.82.75,1.44,1.57,1.39Z" style="fill: #fff;"/>
            <rect x="380.91" y="271.85" width="2.97" height="49.94" rx="1.48" ry="1.48" style="fill: #fff;"/>
          </g>
          <g>
            <rect x="319.5" y="270.37" width="62.89" height="2.97" rx="1.48" ry="1.48" style="fill: #263238;"/>
            <rect x="322.59" y="287.01" width="59.8" height="2.97" rx="1.48" ry="1.48" style="fill: #263238;"/>
            <rect x="325.67" y="303.66" width="56.72" height="2.97" rx="1.48" ry="1.48" style="fill: #263238;"/>
            <rect x="328.75" y="320.3" width="53.64" height="2.97" rx="1.48" ry="1.48" style="fill: #263238;"/>
          </g>
          <g style="opacity: .7;">
            <rect x="319.5" y="270.37" width="62.89" height="2.97" rx="1.48" ry="1.48" style="fill: #fff;"/>
            <rect x="322.59" y="287.01" width="59.8" height="2.97" rx="1.48" ry="1.48" style="fill: #fff;"/>
            <rect x="325.67" y="303.66" width="56.72" height="2.97" rx="1.48" ry="1.48" style="fill: #fff;"/>
            <rect x="328.75" y="320.3" width="53.64" height="2.97" rx="1.48" ry="1.48" style="fill: #fff;"/>
          </g>
        </g>
        <g>
          <g>
            <rect x="382.55" y="270.37" width="50.65" height="2.97" rx="1.48" ry="1.48" style="fill: #263238;"/>
            <rect x="382.55" y="287.01" width="47.57" height="2.97" rx="1.48" ry="1.48" style="fill: #263238;"/>
            <rect x="382.55" y="303.66" width="44.49" height="2.97" rx="1.48" ry="1.48" style="fill: #263238;"/>
            <rect x="382.55" y="320.3" width="41.4" height="2.97" rx="1.48" ry="1.48" style="fill: #263238;"/>
          </g>
          <g style="opacity: .5;">
            <rect x="382.55" y="270.37" width="50.65" height="2.97" rx="1.48" ry="1.48" style="fill: #fff;"/>
            <rect x="382.55" y="287.01" width="47.57" height="2.97" rx="1.48" ry="1.48" style="fill: #fff;"/>
            <rect x="382.55" y="303.66" width="44.49" height="2.97" rx="1.48" ry="1.48" style="fill: #fff;"/>
            <rect x="382.55" y="320.3" width="41.4" height="2.97" rx="1.48" ry="1.48" style="fill: #fff;"/>
          </g>
        </g>
        <g>
          <rect x="327.59" y="341" width="57.11" height="3.16" rx="1.58" ry="1.58" style="fill: #263238;"/>
          <g style="opacity: .5;">
            <rect x="327.59" y="341" width="57.11" height="3.16" rx="1.58" ry="1.58" style="fill: #fff;"/>
          </g>
          <rect x="384.87" y="341" width="44.09" height="3.16" rx="1.58" ry="1.58" style="fill: #263238;"/>
          <g style="opacity: .7;">
            <rect x="384.87" y="341" width="44.09" height="3.16" rx="1.58" ry="1.58" style="fill: #fff;"/>
          </g>
        </g>
        <g>
          <rect x="327.17" y="320.12" width="3.16" height="24.09" rx="1.58" ry="1.58" style="fill: #263238;"/>
          <g style="opacity: .7;">
            <rect x="327.17" y="320.12" width="3.16" height="24.09" rx="1.58" ry="1.58" style="fill: #fff;"/>
          </g>
        </g>
        <g>
          <g>
            <path d="m423.95,321.79h0c-.81-.15-1.34-.92-1.19-1.73l8.71-47.02c.15-.81.92-1.34,1.73-1.19h0c.81.15,1.34.92,1.19,1.73l-8.71,47.02c-.15.81-.92,1.34-1.73,1.19Z" style="fill: #263238;"/>
            <path d="m410.89,321.79h0c-.81-.1-1.39-.84-1.29-1.65l5.8-47c.1-.81.84-1.39,1.65-1.29h0c.81.1,1.39.84,1.29,1.65l-5.8,47c-.1.81-.84,1.39-1.65,1.29Z" style="fill: #263238;"/>
            <path d="m396.35,321.79h0c-.82-.05-1.44-.75-1.39-1.57l2.9-46.98c.05-.82.75-1.44,1.57-1.39h0c.82.05,1.44.75,1.39,1.57l-2.9,46.98c-.05.82-.75,1.44-1.57,1.39Z" style="fill: #263238;"/>
            <rect x="381.07" y="271.85" width="2.97" height="49.94" rx="1.48" ry="1.48" style="fill: #263238;"/>
          </g>
          <g style="opacity: .7;">
            <path d="m423.95,321.79h0c-.81-.15-1.34-.92-1.19-1.73l8.71-47.02c.15-.81.92-1.34,1.73-1.19h0c.81.15,1.34.92,1.19,1.73l-8.71,47.02c-.15.81-.92,1.34-1.73,1.19Z" style="fill: #fff;"/>
            <path d="m410.89,321.79h0c-.81-.1-1.39-.84-1.29-1.65l5.8-47c.1-.81.84-1.39,1.65-1.29h0c.81.1,1.39.84,1.29,1.65l-5.8,47c-.1.81-.84,1.39-1.65,1.29Z" style="fill: #fff;"/>
            <path d="m396.35,321.79h0c-.82-.05-1.44-.75-1.39-1.57l2.9-46.98c.05-.82.75-1.44,1.57-1.39h0c.82.05,1.44.75,1.39,1.57l-2.9,46.98c-.05.82-.75,1.44-1.57,1.39Z" style="fill: #fff;"/>
            <rect x="381.07" y="271.85" width="2.97" height="49.94" rx="1.48" ry="1.48" style="fill: #fff;"/>
          </g>
        </g>
        <g>
          <path d="m420.93,352.56c0,3.37,2.74,6.11,6.11,6.11s6.11-2.74,6.11-6.11-2.74-6.11-6.11-6.11-6.11,2.74-6.11,6.11Z" style="fill: #263238;"/>
          <path d="m423.95,352.56c0,1.7,1.38,3.08,3.08,3.08s3.08-1.38,3.08-3.08-1.38-3.08-3.08-3.08-3.08,1.38-3.08,3.08Z" style="fill: #fff; opacity: .5;"/>
        </g>
        <g>
          <path d="m378.76,352.56c0,3.37,2.74,6.11,6.11,6.11s6.11-2.74,6.11-6.11-2.74-6.11-6.11-6.11-6.11,2.74-6.11,6.11Z" style="fill: #263238;"/>
          <path d="m381.78,352.56c0,1.7,1.38,3.08,3.08,3.08s3.08-1.38,3.08-3.08-1.38-3.08-3.08-3.08-3.08,1.38-3.08,3.08Z" style="fill: #fff; opacity: .5;"/>
        </g>
        <g>
          <path d="m322.64,352.56c0,3.37,2.74,6.11,6.11,6.11s6.11-2.74,6.11-6.11-2.74-6.11-6.11-6.11-6.11,2.74-6.11,6.11Z" style="fill: #263238;"/>
          <path d="m325.67,352.56c0,1.7,1.38,3.08,3.08,3.08s3.08-1.38,3.08-3.08-1.38-3.08-3.08-3.08-3.08,1.38-3.08,3.08Z" style="fill: #fff; opacity: .5;"/>
        </g>
      </g>
    </g>
  </g>
  <g id="Character">
    <g>
      <path d="m130.27,91.38c-.24,2.79,1.18,5.05,3.18,5.05s3.82-2.26,4.07-5.05c.24-2.79-1.18-5.05-3.18-5.05s-3.82,2.26-4.07,5.05Z" style="fill: #407bff;"/>
      <path d="m132.68,77.63s2.42,1.07,1.61,3.16c0,0,3.43,4.6.04,5.53l-3.7-7.8,2.04-.9Z" style="fill: #263238;"/>
      <path d="m129.05,91.38c-.24,2.79,1.18,5.05,3.18,5.05s3.82-2.26,4.07-5.05c.24-2.79-1.18-5.05-3.18-5.05s-3.82,2.26-4.07,5.05Z" style="opacity: .5;"/>
      <g>
        <polygon points="166.22 349.1 172.91 346.92 168.75 331.14 162.06 333.32 166.22 349.1" style="fill: #ce7a63;"/>
        <path d="m173.01,346.04l-7.52,2.44c-.27.09-.42.35-.35.62l1.57,6.07c.16.63.93,1.03,1.56.81,2.6-.89,3.8-1.45,7.11-2.53,2.03-.66,10.75-3.25,13.56-4.17,2.75-.89,1.83-3.66.56-3.53-5.7.6-12.82,1.2-15.19.32-.43-.16-.89-.17-1.29-.04Z" style="fill: #407bff;"/>
        <polygon points="162.06 333.32 168.76 331.15 170.9 339.28 164.2 341.46 162.06 333.32" style="opacity: .2;"/>
        <path d="m145.75,173.58s9.5,57.27,12.32,77.25c3.08,21.88,15.2,85.86,15.2,85.86l-12.42,3.43s-17.74-62-22.77-83.27c-5.46-23.08-17.47-83.27-17.47-83.27h25.14Z" style="fill: #263238;"/>
        <path d="m130.5,197.07c4.86,12.14,5.41,32.77,3.44,41.22-2.98-13.88-6.4-30.49-9.02-43.41.94-3.31,2.64-5.2,5.59,2.18Z" style="opacity: .5;"/>
        <polygon points="160.53 340.36 173.84 336.69 173.58 331.27 158.6 336.45 160.53 340.36" style="fill: #263238;"/>
        <path d="m175.76,346.43c-.62.2-1.34.3-1.86.34-.06,0-.13-.03-.16-.08-.03-.06-.03-.13.01-.18.17-.22,1.64-2.13,2.56-2.07.21.01.39.12.51.32.19.33.22.63.08.91-.18.35-.62.59-1.14.76Zm-1.51-.03c1.27-.15,2.14-.47,2.36-.89.09-.17.06-.36-.07-.59-.06-.11-.14-.16-.24-.16-.5-.03-1.43.9-2.04,1.64Z" style="fill: #407bff;"/>
        <path d="m173.94,346.76s-.05.01-.08,0c-.06,0-.1-.05-.12-.1-.03-.08-.81-1.96-.34-2.83.13-.23.32-.38.59-.43.32-.06.58.04.72.29.39.68-.15,2.4-.69,3.01-.02.02-.04.04-.07.05Zm.03-3.01c-.13.04-.23.12-.29.25-.28.52.03,1.64.25,2.27.42-.68.74-1.96.49-2.4-.05-.09-.14-.18-.37-.13-.03,0-.05.01-.07.02Z" style="fill: #407bff;"/>
      </g>
      <path d="m148.21,115.74c1.86,4,3.9,8.15,6.02,12.05,1.05,1.97,2.16,3.88,3.31,5.7,1.14,1.81,2.37,3.54,3.57,4.87.58.65,1.2,1.18,1.49,1.37.07.05.11.07.08.07-.06.02.08.04.13.08.23.05.54.12.96.14,1.64.12,3.84-.16,5.96-.48,4.31-.72,8.84-1.8,13.27-2.86l2,4.8c-4.23,2.43-8.54,4.45-13.28,6.04-2.4.77-4.81,1.46-7.85,1.68-.76.06-1.61.03-2.54-.07-.52-.09-.97-.14-1.57-.33-.59-.17-1.09-.38-1.53-.6-1.79-.9-2.95-1.92-4.03-2.91-2.09-2-3.64-4.04-5.12-6.09-1.46-2.06-2.75-4.15-3.99-6.25-1.21-2.12-2.38-4.23-3.44-6.4-1.08-2.18-2.1-4.29-3.07-6.6l9.63-4.19Z" style="fill: #ce7a63;"/>
      <path d="m159.64,132.85l-11.12,8.3s-.43-.47-1.13-1.28c-.51-.6-1.18-1.39-1.94-2.32-4.32-5.26-10.64-14.87-10.69-19.57-.08-7.01,7.21-8.05,15.38-.87,3.53,3.09,5.37,8.23,7.16,11.42.59,1.05,1.09,1.97,1.48,2.68.55,1.04.87,1.65.87,1.65Z" style="fill: #407bff;"/>
      <path d="m159.64,132.85l-11.12,8.3s-.43-.47-1.13-1.28c-.51-.6-1.18-1.39-1.94-2.32-4.32-5.26-10.64-14.87-10.69-19.57-.08-7.01,7.21-8.05,15.38-.87,3.53,3.09,5.37,8.23,7.16,11.42.59,1.05,1.09,1.97,1.48,2.68.55,1.04.87,1.65.87,1.65Z" style="opacity: .5;"/>
      <g>
        <polygon points="99.03 352.17 106.06 352.17 108.4 335.88 101.36 335.88 99.03 352.17" style="fill: #ce7a63;"/>
        <path d="m106.5,351.36h-7.9c-.29,0-.52.2-.56.48l-.93,6.25c-.1.65.46,1.26,1.12,1.25,2.76-.05,4.08-.21,7.56-.21,2.14,0,11.21.22,14.16.22s3.12-2.92,1.9-3.18c-5.51-1.19-12.32-2.82-14.17-4.38-.33-.28-.75-.43-1.17-.43Z" style="fill: #407bff;"/>
        <polygon points="101.36 335.89 108.4 335.89 107.19 344.28 100.15 344.28 101.36 335.89" style="opacity: .2;"/>
        <path d="m133.15,173.22s-4.03,53.77-6.94,73.91c-3.18,22.06-15.83,95.13-15.83,95.13h-12.89s6.62-71.29,7.76-93.13c1.23-23.7,3.62-75.91,3.62-75.91h24.28Z" style="fill: #263238;"/>
        <polygon points="96.98 342.26 110.91 342.26 112.11 337.37 96.67 338.13 96.98 342.26" style="fill: #263238;"/>
        <path d="m108.89,352.58c-.65,0-1.36-.13-1.85-.25-.06-.01-.11-.06-.11-.13,0-.06.03-.13.08-.17.24-.16,2.35-1.52,3.18-1.18.19.08.31.24.34.46.05.37-.04.67-.28.89-.3.28-.81.37-1.35.37Zm-1.38-.49c1.24.25,2.17.21,2.52-.11.15-.14.2-.33.17-.59-.02-.12-.07-.19-.16-.23-.45-.18-1.67.41-2.53.93Z" style="fill: #407bff;"/>
        <path d="m107.07,352.34s-.05,0-.07-.02c-.05-.03-.08-.08-.08-.13,0-.09.02-2.11.79-2.79.21-.18.45-.26.72-.23.32.04.52.22.55.5.1.77-1.08,2.24-1.82,2.65-.03.02-.06.02-.09.02Zm1.21-2.85c-.14,0-.26.05-.36.14-.46.41-.62,1.57-.66,2.23.66-.52,1.45-1.63,1.39-2.14-.01-.1-.06-.21-.29-.24-.03,0-.05,0-.08,0Z" style="fill: #407bff;"/>
      </g>
      <path d="m134.68,118.78c2.51-1.66,4.35,2.64,9.31,6.27,2.21,1.62,7.06,12.18,6.67,14.5l-2.14,1.6s-13.89-15.38-13.84-22.37Z" style="opacity: .3;"/>
      <g>
        <path d="m181.83,136.92l6.3-5.1,2.68,7.31s-6.67,3.84-8.27,2.03l-.72-4.24Z" style="fill: #ce7a63;"/>
        <polygon points="195.28 133.01 195.83 138.58 190.81 139.13 188.13 131.81 195.28 133.01" style="fill: #ce7a63;"/>
      </g>
      <path d="m145.75,173.58h-37.63c-.27-3.36.51-14.29-.07-28.21-.39-9.35-1.4-20.04-3.74-30.69-.17-.76-.34-1.51-.52-2.27,0,0,1.91-.39,4.64-.79,2.27-.33,5.12-.67,7.91-.81,4.8-.23,11.76-.38,15.99,0,2.46.23,4.86.64,6.78,1.01,2.45.49,3.89.92,3.89.92,0,0,9.27,21.28,2.75,60.84Z" style="fill: #407bff;"/>
      <path d="m145.75,173.58h-37.63c-.27-3.36.51-14.29-.07-28.21-.39-9.35-1.4-20.04-3.74-30.69-.17-.76-.34-1.51-.52-2.27,0,0,1.91-.39,4.64-.79,2.27-.33,5.12-.67,7.91-.81,4.8-.23,11.76-.38,15.99,0,2.46.23,4.86.64,6.78,1.01,2.45.49,3.89.92,3.89.92,0,0,9.27,21.28,2.75,60.84Z" style="opacity: .5;"/>
      <path d="m108.06,145.37c-.39-9.35-1.4-20.04-3.74-30.69,2.51-.22,6.81.03,7.53,4.09.77,4.36-.2,14.63-3.79,26.6Z" style="opacity: .3;"/>
      <path d="m110.96,121.79l-5.72,14.27-2.76,7.1c-.85,2.33-1.73,4.75-2.29,6.82-.51,1.96-.8,4.52-1.07,6.99-.24,2.5-.51,5.05-.7,7.61-.43,5.11-.86,10.29-1.35,15.44l-5.2.11c-.68-5.22-1.13-10.43-1.38-15.69-.11-2.63-.21-5.27-.18-7.94.04-2.7.03-5.34.57-8.47.57-3,1.31-5.52,2.1-8.1.79-2.55,1.64-5.05,2.53-7.54,1.78-4.96,3.68-9.81,5.78-14.66l9.68,4.06Z" style="fill: #ce7a63;"/>
      <path d="m113.13,125.22c-1.58,4.71-4.19,10.34-6.1,14.28-.5,1.04-.97,1.97-1.35,2.72-.66,1.32-1.08,2.12-1.08,2.12l-14.25-7.9s.18-.6.5-1.6c.25-.76.57-1.76.97-2.9,2.37-6.77,7.22-18.84,11.98-19.53,7.11-1.03,12.22,4.28,9.34,12.81Z" style="fill: #407bff;"/>
      <path d="m113.13,125.22c-1.58,4.71-4.19,10.34-6.1,14.28-.5,1.04-.97,1.97-1.35,2.72-.66,1.32-1.08,2.12-1.08,2.12l-14.25-7.9s.18-.6.5-1.6c.25-.76.57-1.76.97-2.9,2.37-6.77,7.22-18.84,11.98-19.53,7.11-1.03,12.22,4.28,9.34,12.81Z" style="opacity: .5;"/>
      <path d="m125.86,115.16c-8.95-.16-10.13-4.31-10.13-4.31,3.48-3.43,2.14-12.82.96-17.97l4.28,3.55,5.83,4.84c-.17.79-.3,1.59-.37,2.35-.31,3.16.5,6.04,5.15,7.14,0,0,5.52,3.65-2.67,4.31l-3.04.09Z" style="fill: #ce7a63;"/>
      <path d="m126.79,101.27c-.17.79-.3,1.59-.37,2.35-2.17-.44-5.08-2.75-5.38-4.97-.11-.83-.13-1.64-.08-2.22l5.83,4.84Z" style="opacity: .2;"/>
      <path d="m114.92,85.47c1.49,6.84,2.01,10.91,6.05,14.03,6.08,4.7,14.13.52,14.72-6.55.53-6.37-1.99-16.49-9.19-18.42-7.09-1.91-13.07,4.1-11.59,10.94Z" style="fill: #ce7a63;"/>
      <path d="m113.34,92.61c1.22,1.47,2.91,2.34,4.34,2.58,2.16.37,2.64-1.63,1.55-3.56-.99-1.74-3.3-4.02-5.23-3.51-1.9.5-2.06,2.81-.66,4.49Z" style="fill: #ce7a63;"/>
      <path d="m125.71,86.14c.09.56.46.98.82.94.37-.04.6-.53.51-1.1-.09-.56-.46-.98-.82-.94-.37.04-.6.53-.51,1.1Z" style="fill: #263238;"/>
      <path d="m132.08,85.39c.09.56.46.98.82.94s.6-.53.51-1.1c-.09-.56-.46-.98-.82-.94s-.6.53-.51,1.1Z" style="fill: #263238;"/>
      <path d="m130.1,85.91s1.78,3.09,3.43,4.48c-.85,1.05-2.61.82-2.61.82l-.82-5.3Z" style="fill: #ba4d3c;"/>
      <path d="m128.85,92.99c-2.24,0-3.49-1.39-3.54-1.46-.06-.07-.05-.17.02-.23.07-.06.17-.05.23.02.01.02,1.44,1.6,3.91,1.31.09-.01.17.05.18.15.01.09-.05.17-.15.18-.23.03-.45.04-.66.04Z" style="fill: #263238;"/>
      <path d="m123.43,84.33c-.05,0-.11-.01-.16-.04-.16-.09-.22-.29-.13-.45.88-1.59,2.43-1.68,2.49-1.69.17-.03.34.13.35.32,0,.18-.13.34-.32.35-.06,0-1.25.09-1.94,1.35-.06.11-.17.17-.29.17Z" style="fill: #263238;"/>
      <path d="m134.48,82.88c-.11,0-.21-.05-.28-.15-.85-1.25-2.09-1.27-2.11-1.27-.18,0-.33-.15-.33-.34,0-.18.15-.33.33-.33h0c.07,0,1.61.03,2.65,1.57.1.15.06.36-.09.46-.06.04-.12.06-.19.06Z" style="fill: #263238;"/>
      <g>
        <path d="m92.08,178.26l-3.14,6.38,8.79-1.18s1.76-6.15-1.49-6.79l-4.17,1.59Z" style="fill: #ce7a63;"/>
        <polygon points="91.39 190.8 98.6 189.48 97.73 183.46 88.94 184.64 91.39 190.8" style="fill: #ce7a63;"/>
      </g>
      <path d="m118.82,71.77s-3.69-8.38-6.4-1.38c0,0-5.97-4.24-5.96,1.66,0,0-5.14,1.33-1.28,5.25,0,0-4.45,2.72,0,5.94,0,0-1.93,4.91,2.53,5.33,0,0,.01,6.36,3.83,2.81,0,0,.92,7.35,5.08,3.26l.5-4s3.24-2.25.92-9.59c0,0,10.17,1.93,8.34-1.16,0,0,8.99.75,7.91-2.83,0,0,4.45-2.26,2.43-4.09,0,0,2.65-10.18-3.43-6.88,0,0-2.42-6.53-5.25-.66,0,0-2.97-.8-3.49,2.79,0,0-1.36-.99-1.81,2.17l-3.93,1.38Z" style="fill: #263238;"/>
      <path d="m113.1,87.83v-7.34c0-4.57,3.03-8.42,7.2-9.67l2.45-.44c-4.27,1.27-7.38,5.23-7.38,9.91v7.53h-2.27Z" style="fill: #407bff;"/>
      <path d="m118.79,91.38c.24,2.79-1.18,5.05-3.18,5.05s-3.82-2.26-4.07-5.05c-.24-2.79,1.18-5.05,3.18-5.05s3.82,2.26,4.07,5.05Z" style="fill: #407bff;"/>
      <path d="m118.79,91.38c.24,2.79-1.18,5.05-3.18,5.05s-3.82-2.26-4.07-5.05c-.24-2.79,1.18-5.05,3.18-5.05s3.82,2.26,4.07,5.05Z" style="opacity: .5;"/>
      <path d="m117.58,91.38c.24,2.79-1.18,5.05-3.18,5.05s-3.82-2.26-4.07-5.05c-.24-2.79,1.18-5.05,3.18-5.05s3.82,2.26,4.07,5.05Z" style="fill: #407bff;"/>
      <g style="opacity: .5;">
        <path d="m110.74,92.11c.37,1.44,1.39,2.52,2.5,2.52s1.94-1.08,2.05-2.52h-4.55Z" style="fill: #fff;"/>
        <path d="m115.17,90.64c-.37-1.44-1.39-2.52-2.5-2.52s-1.94,1.08-2.05,2.52h4.55Z" style="fill: #fff;"/>
      </g>
    </g>
  </g>
</svg>